<?xml version="1.0" encoding="utf-8"?>
<!-- Generator: Adobe Illustrator 19.2.1, SVG Export Plug-In . SVG Version: 6.00 Build 0)  -->
<svg version="1.1" id="Capa_1" xmlns="http://www.w3.org/2000/svg" xmlns:xlink="http://www.w3.org/1999/xlink" x="0px" y="0px"
	 viewBox="0 0 555 535" style="enable-background:new 0 0 555 535;" xml:space="preserve">
<style type="text/css">
	.st0{fill:#FFFFFF;}
</style>
<title>biking</title>
<g id="_Group_">
	
		<image style="overflow:visible;opacity:0.75;enable-background:new    ;" width="555" height="535" xlink:href="F119EF7E4DB06A30.png" >
	</image>
	<g>
		<circle id="_Path_" class="st0" cx="286.5" cy="61" r="39.2"/>
		<path id="_Compound_Path_" class="st0" d="M429.6,304.3c-6.7,0-13.3,0.6-19.9,1.9L389,244.5l14.3,7.1c6.8,3.5,15.1,0.8,18.6-6
			c3.4-6.6,0.9-14.8-5.6-18.4l-0.7-0.4l-38.9-19.4c11,16.2,6.7,38.3-9.6,49.2c0,0,0,0,0,0c-0.9,0.6-1.8,1.1-2.7,1.7l3.9,11.7
			l-43.6,1.3c0.4,4.7-0.1,9.5-1.5,14.1l-4.1,13.8l24.8-0.8l-34.8,34L294.7,381c-3.1-1-6.4-0.9-9.4,0.3l-9.6,3.8
			c0-0.1,0.1-0.3,0.1-0.4l31.1-104.3c3.2-10.7-2.4-22-12.8-26l-19.2-7.3l-11.9-2.7c-9.7-2.3-17-10.4-18-20.4l-7.2-69l23.8,62.7
			c2.1,5.6,6.9,9.7,12.6,11l69.1,15.8c9.6,2.2,19.1-3.8,21.2-13.4c2.2-9.6-3.8-19.1-13.4-21.2l0,0l-59.8-13.6L271,142.6l21.4,29.9
			l6.1-15.9c5.2-13.6-1.6-28.9-15.2-34.2l0,0l-44.1-16.8c-13.6-5.2-28.9,1.6-34.2,15.2c0,0,0,0,0,0l0,0
			c-34.8,91.2-33.4,86.6-34.4,92.6c-1.9,10.8,0.2,21.9,5.9,31.3h-18.8c-9.2,0-16.6,7.4-16.6,16.6s7.4,16.6,16.6,16.6l0,0H185
			l2.8,6.8l-19.4,28.4c-52.7-23.2-114.3,0.7-137.6,53.4s0.7,114.3,53.4,137.6c52.7,23.2,114.3-0.7,137.6-53.4
			c3.1-7.1,5.4-14.5,6.9-22c3.6,1.8,7.7,2,11.4,0.5l55.3-22.1c7.1-2.8,10.5-10.9,7.7-18c-1.1-2.8-3.1-5.1-5.6-6.7l81.7-79.9
			l4.2,12.5c-51.7,25.4-73,88-47.5,139.7s88,73,139.7,47.5c51.7-25.4,73-88,47.5-139.7C505.6,326.9,469.4,304.3,429.6,304.3z
			 M176.4,350.6c13.3,11.4,22.2,27,25.4,44.2h-55.6L176.4,350.6z M126.4,485.3c-42.3,0-76.7-34.3-76.7-76.7S84,332,126.4,332
			c8.9,0,17.7,1.5,26.1,4.6l-44,64.3c-4.3,6.3-2.7,14.9,3.6,19.2c2.3,1.6,5,2.4,7.8,2.4h81.8C195,458.9,163.3,485.3,126.4,485.3
			L126.4,485.3L126.4,485.3z M229.9,403.5c-0.9,0.4-1.8,0.8-2.6,1.4c-9.3-9.9-12.6-24.1-8.7-37.1l1.4-4.9
			c-6.7-13.7-16.3-25.7-28.1-35.3l8.4-12.3l19.7,47.5l10-33.6L219,302.1l19.5-0.6l1.2-4.1L189,278h47l24.5,9.2L235,372.7
			c-2.8,9.6,1.4,19.9,10.2,24.7L229.9,403.5z M429.7,485.3c-42.3,0-76.7-34.3-76.7-76.6c0-27.9,15.1-53.6,39.5-67.1l24,71.5
			c2.2,7.3,10,11.4,17.3,9.2c7.3-2.2,11.4-10,9.2-17.3c0-0.1-0.1-0.2-0.1-0.3l-0.1-0.4l-24-71.5c41.9-6,80.8,23.1,86.8,65
			s-23.1,80.8-65,86.8C437,485.1,433.3,485.3,429.7,485.3L429.7,485.3L429.7,485.3z"/>
	</g>
</g>
</svg>
