<?xml version="1.0" encoding="utf-8"?>
<!-- Generator: Adobe Illustrator 19.2.1, SVG Export Plug-In . SVG Version: 6.00 Build 0)  -->
<svg version="1.1" id="Capa_1" xmlns="http://www.w3.org/2000/svg" xmlns:xlink="http://www.w3.org/1999/xlink" x="0px" y="0px"
	 viewBox="0 0 554 438" style="enable-background:new 0 0 554 438;" xml:space="preserve">
<style type="text/css">
	.st0{fill:#FFFFFF;}
</style>
<title>boatLaunch</title>
<g>
	
		<image style="overflow:visible;opacity:0.75;enable-background:new    ;" width="554" height="438" xlink:href="778A0F874996EE35.png" >
	</image>
	<g>
		<path class="st0" d="M112.6,93.9c5.5,10.1,15.8,20.5,30.7,31.2c14.9,10.8,33.8,19.2,56.7,25.5L509.1,237l22.9-84.2L222.9,66.3
			l56.2-39.5l-19.8-5.2l-56.2,40.6l-102-28.1l-1,8.3c-0.7,5.5-0.2,13,1.5,22.4C103.7,75,107.4,84.9,112.6,93.9z"/>
		<path class="st0" d="M372.7,248.4l133.2,37.5l4.2-17.7l-141.5-39.5C370.7,235.1,372.1,241.7,372.7,248.4z"/>
		<path class="st0" d="M257.2,198.5L21,132.9v18.7l222.7,61.4C247.7,207.7,252.2,202.8,257.2,198.5z"/>
		<path class="st0" d="M532,369.2l-235.2-64.5c0.9,0,1.8,0.2,2.6,0.5s1.7,0.5,2.6,0.5c29.3,0,53-23.7,53-53
			c0-14.1-5.6-27.6-15.6-37.6c-9.8-10.1-23.3-15.7-37.4-15.5c-14-0.2-27.5,5.2-37.5,15c-10.4,10.1-15.6,22.7-15.6,38
			c0,22.2,10.1,38.2,30.2,47.9L21,228.7L22,416c10.7,0.1,21.4-2,31.3-6.2c20.4-9.7,44.1-9.7,64.5,0c20.3,8.3,43.1,8.3,63.5,0
			c20.4-9.7,44.1-9.7,64.5,0c20.3,8.3,43.1,8.3,63.5,0c20.4-9.7,44.1-9.7,64.5,0c20,8.3,42.5,8.3,62.4,0c10.1-4.8,21.1-7.3,32.3-7.3
			c11.5,0.1,22.8,2.6,33.3,7.3c9.9,4.2,20.5,6.3,31.2,6.2L532,369.2z M279.1,252.1c0-6.6,2.3-12,6.8-16.1c9.1-8.3,23.1-8.3,32.3,0
			c4.5,4.2,6.8,9.5,6.8,16.1c0.3,12.6-9.8,23.1-22.4,23.4c-6.1,0.1-11.9-2.2-16.3-6.4l-0.3-0.3C281.4,264.4,278.9,258.4,279.1,252.1
			z"/>
	</g>
</g>
</svg>
