<?xml version="1.0" encoding="utf-8"?>
<!-- Generator: Adobe Illustrator 19.2.1, SVG Export Plug-In . SVG Version: 6.00 Build 0)  -->
<svg version="1.1" id="Capa_1" xmlns="http://www.w3.org/2000/svg" xmlns:xlink="http://www.w3.org/1999/xlink" x="0px" y="0px"
	 viewBox="0 0 418 554" style="enable-background:new 0 0 418 554;" xml:space="preserve">
<style type="text/css">
	.st0{fill:#FFFFFF;}
</style>
<title>cashMachine</title>
<g>
	
		<image style="overflow:visible;opacity:0.75;enable-background:new    ;" width="418" height="554" xlink:href="1EF590ED3D463E6F.png" >
	</image>
	<g>
		<path class="st0" d="M110,226v15.4c7.7-1.7,7.7-5.9,7.7-7.4c0.1-1.8-0.7-3.5-2-4.7C114,227.9,112.1,226.8,110,226z"/>
		<path class="st0" d="M91.9,196.5c-0.1,1.8,0.6,3.5,1.8,4.8c1.5,1.4,3.3,2.5,5.2,3.3v-14.8c-1.8,0.4-3.5,1.1-4.9,2.3
			C92.6,193.2,91.9,194.8,91.9,196.5z"/>
		<circle class="st0" cx="292.2" cy="96.7" r="52.6"/>
		<path class="st0" d="M395.5,291.7l-24.3-113.6c-4.5-21.2-26-31.3-44.2-31.8h-0.1c-4,0.1-8,0.4-12,1.1c-3.8,0.8-7.4,2.1-10.9,3.9
			c-13.4,6.5-26.3,20-27.9,36.3c-0.2,0.8-0.4,1.6-0.6,2.4c-3.8,26.4-6.6,43.1-14.4,52.1s-24.8,14.9-56.9,19.2
			c-5.7,0.8-10.8,3.9-14,8.6l-34.4-128.8H172v-24.3h-22.6l-3.8-14.2H87.6V21H21.7v499.5h65.9V324.5h117.2l-6.6-24.5
			c2.7,1.3,5.7,2,8.7,2c0.9,0,1.9-0.1,2.8-0.2c43.2-5.9,67.4-15.7,82-32.8l9.2,43c3,13.9,12.7,22.8,24.2,27.3l0.1,165.9
			c0,15.4,12.5,27.8,27.9,27.8l0,0c15.4,0,27.8-12.5,27.8-27.9v0l-0.1-175.3C391.9,320.5,398.7,306.9,395.5,291.7z M128.1,248.7
			c-4.3,3.8-10.4,6.2-18.1,7.3v13.4H98.9v-12.9c-9.6-0.3-17.6-1.9-23.9-4.7l-0.9-0.4v-16.3l2.2,1.1c3.8,1.8,7.8,3.2,11.9,4.2
			c3.5,0.9,7.1,1.5,10.7,1.7v-20.2l-4.1-1.5c-6.9-2.6-12-5.9-15.2-9.6c-3.4-3.9-5.1-9-5-14.2c-0.1-5.8,2.5-11.4,7.1-15
			c4.3-3.6,10.1-5.8,17.2-6.8v-10.4H110v10.1c7.7,0.4,15.3,2.1,22.5,5l1.4,0.6l-5.6,13.9l-1.4-0.6c-5.4-2.2-11.1-3.6-16.9-4.2v19.5
			l3.6,1.4c8,3.1,13.5,6.3,16.6,9.8c3.2,3.6,4.9,8.3,4.8,13.1C135.2,239.1,132.7,244.8,128.1,248.7L128.1,248.7z"/>
	</g>
</g>
</svg>
