<?xml version="1.0" encoding="utf-8"?>
<!-- Generator: Adobe Illustrator 19.2.1, SVG Export Plug-In . SVG Version: 6.00 Build 0)  -->
<svg version="1.1" id="Capa_1" xmlns="http://www.w3.org/2000/svg" xmlns:xlink="http://www.w3.org/1999/xlink" x="0px" y="0px"
	 viewBox="0 0 554 416" style="enable-background:new 0 0 554 416;" xml:space="preserve">
<style type="text/css">
	.st0{fill:#FFFFFF;}
</style>
<title>creec</title>
<g>
	
		<image style="overflow:visible;opacity:0.75;enable-background:new    ;" width="554" height="416" xlink:href="8025B0EF1720FD9E.png" >
	</image>
	<g>
		<path class="st0" d="M100.1,252H80.3c-3-0.2-5.6,2.1-5.8,5.2c0,0.2,0,0.4,0,0.6v28c-0.2,3,2.2,5.6,5.2,5.8c0.2,0,0.4,0,0.6,0h19.8
			c3,0.2,5.6-2.1,5.8-5.2c0-0.2,0-0.4,0-0.7v-28c0.1-3-2.2-5.6-5.2-5.8C100.5,252,100.3,252,100.1,252z"/>
		<path class="st0" d="M100.1,305.6H80.3c-3-0.2-5.6,2.1-5.8,5.2c0,0.2,0,0.4,0,0.7v27.9c-0.2,3,2.1,5.6,5.2,5.8c0.2,0,0.4,0,0.7,0
			h19.8c3,0.2,5.6-2.1,5.8-5.2c0-0.2,0-0.4,0-0.7v-28c0.2-3-2.2-5.6-5.2-5.8C100.5,305.6,100.3,305.6,100.1,305.6z"/>
		<path class="st0" d="M140.9,252h-19.8c-3-0.2-5.6,2.1-5.8,5.2c0,0.2,0,0.4,0,0.6v28c-0.2,3,2.1,5.6,5.2,5.8c0.2,0,0.4,0,0.7,0
			h19.8c3,0.2,5.6-2.1,5.8-5.2c0-0.2,0-0.4,0-0.7v-28c0.2-3-2.2-5.6-5.2-5.8C141.3,252,141.1,252,140.9,252z"/>
		<path class="st0" d="M140.9,305.6h-19.8c-3-0.2-5.6,2.1-5.8,5.2c0,0.2,0,0.4,0,0.7v27.9c-0.2,3,2.1,5.6,5.2,5.8c0.2,0,0.4,0,0.7,0
			h19.8c3,0.2,5.6-2.1,5.8-5.2c0-0.2,0-0.4,0-0.7v-28c0.2-3-2.2-5.6-5.2-5.8C141.3,305.6,141.1,305.6,140.9,305.6z"/>
		<path class="st0" d="M413.1,290.4h19.8c3,0.2,5.6-2.1,5.8-5.2c0-0.2,0-0.4,0-0.7v-27.9c0.2-3-2.1-5.6-5.2-5.8c-0.2,0-0.4,0-0.7,0
			h-19.8c-3-0.2-5.6,2.1-5.8,5.2c0,0.2,0,0.4,0,0.7v27.9c-0.2,3,2.1,5.6,5.1,5.8C412.7,290.5,412.9,290.5,413.1,290.4z"/>
		<path class="st0" d="M413.1,344h19.8c3,0.2,5.6-2.1,5.8-5.2c0-0.2,0-0.4,0-0.7v-27.9c0.2-3-2.1-5.6-5.2-5.8c-0.2,0-0.4,0-0.7,0
			h-19.8c-3-0.2-5.6,2.1-5.8,5.2c0,0.2,0,0.4,0,0.7v27.9c-0.2,3,2.1,5.6,5.2,5.8C412.7,344,412.9,344,413.1,344z"/>
		<path class="st0" d="M453.9,290.4h19.8c3,0.2,5.6-2.1,5.8-5.2c0-0.2,0-0.4,0-0.7v-27.9c0.2-3-2.1-5.6-5.2-5.8c-0.2,0-0.4,0-0.7,0
			h-19.8c-3-0.2-5.6,2.1-5.8,5.2c0,0.2,0,0.4,0,0.7v27.9c-0.2,3,2.1,5.6,5.1,5.8C453.4,290.5,453.6,290.5,453.9,290.4z"/>
		<path class="st0" d="M453.9,344h19.8c3,0.2,5.6-2.1,5.8-5.2c0-0.2,0-0.4,0-0.7v-27.9c0.2-3-2.1-5.6-5.2-5.8c-0.2,0-0.4,0-0.7,0
			h-19.8c-3-0.2-5.6,2.1-5.8,5.2c0,0.2,0,0.4,0,0.7v27.9c-0.2,3,2.1,5.6,5.2,5.8C453.4,344,453.7,344,453.9,344z"/>
		<path class="st0" d="M515.5,145H311.9l-17.5-15.2v-20.9h62.8c9.5-0.2,17.2-7.9,17.5-17.4V53.1c-0.2-9.5-7.9-17.2-17.5-17.5h-62.8
			c-2.3-8.1-8.2-14-17.5-14c-9.5,0.2-17.2,7.9-17.5,17.5v90.8L242.1,145H38.5c-9.6,0.2-17.2,7.9-17.5,17.5v54.7l0,0v159.4
			c0.2,9.5,7.9,17.2,17.5,17.5h477.1c9.5-0.2,17.2-7.9,17.5-17.5V217.1l0,0v-54.7C532.8,152.9,525.1,145.2,515.5,145z M55.9,234.6
			h110.5v124.5H55.9V234.6z M306.1,246.2h-58.2c-9.5,0.2-17.2,7.9-17.4,17.5v96.6h-29.1v-135l75.6-65.2l75.6,65.2v135h-29.1v-96.6
			c0.2-9.5-7.4-17.3-16.8-17.4L306.1,246.2L306.1,246.2z M498.1,360.2H387.5V234.6h110.5V360.2L498.1,360.2z"/>
	</g>
</g>
</svg>
