<?xml version="1.0" encoding="utf-8"?>
<!-- Generator: Adobe Illustrator 19.2.1, SVG Export Plug-In . SVG Version: 6.00 Build 0)  -->
<svg version="1.1" id="Capa_1" xmlns="http://www.w3.org/2000/svg" xmlns:xlink="http://www.w3.org/1999/xlink" x="0px" y="0px"
	 viewBox="0 0 522 555" style="enable-background:new 0 0 522 555;" xml:space="preserve">
<style type="text/css">
	.st0{fill:#FFFFFF;}
</style>
<title>fishing</title>
<g>
	
		<image style="overflow:visible;opacity:0.75;enable-background:new    ;" width="522" height="555" xlink:href="7700E644A604A7E7.png" >
	</image>
	<g>
		<path class="st0" d="M469.1,250.4c57.2-47.4,19.6-120.8,19.6-120.8L417.1,21l-11.5,141.6c0,0,10.4-9.2,24.9-28.3
			c21.4,27.1,30,63.6,0,83.2c-55.5,36.4-77.5-28.3-77.5-28.3s-31.2-78-51.4-141.6c-20.2,20.8-48.6,16.8-48.6,16.8
			s28.3,91.3,59,158.4C353.6,284,411.9,297.8,469.1,250.4L469.1,250.4L469.1,250.4z"/>
		<path class="st0" d="M303.4,321.2c-10.4-18-33-38.4-81.3-51.5l10.6,59c-39.2,10.8-82.1,33.7-127.6,74.3L21,332.9
			c0,0,24.8,99.3,0,190c35.9-33,66.3-58.8,86.5-75.3c105.4,82.5,210.3,150.4,377.4-21.1C484.9,426.5,415.3,328.6,303.4,321.2
			L303.4,321.2L303.4,321.2z"/>
	</g>
</g>
</svg>
