<?xml version="1.0" encoding="utf-8"?>
<!-- Generator: Adobe Illustrator 19.2.1, SVG Export Plug-In . SVG Version: 6.00 Build 0)  -->
<svg version="1.1" id="Capa_1" xmlns="http://www.w3.org/2000/svg" xmlns:xlink="http://www.w3.org/1999/xlink" x="0px" y="0px"
	 viewBox="0 0 554 506" style="enable-background:new 0 0 554 506;" xml:space="preserve">
<style type="text/css">
	.st0{fill:#FFFFFF;}
</style>
<title>fitness</title>
<g>
	
		<image style="overflow:visible;opacity:0.75;enable-background:new    ;" width="554" height="506" xlink:href="957BE0ACA5E51876.png" >
	</image>
	<g>
		<path class="st0" d="M42.1,360.9c-14,3-23,16.8-20,30.8c2.5,11.8,12.8,20.4,24.9,20.6c1.6,0,3.3-0.2,4.9-0.5l106.9-20.5
			c6.1-1.2,11.6-4.5,15.4-9.3l45.9-57.9l-15.3-7.8c-11.3-5.7-19.4-16.2-21.9-28.6l-43.3,54.6L42.1,360.9z"/>
		<circle class="st0" cx="422.9" cy="78.3" r="56.9"/>
		<path class="st0" d="M298.7,64c-6-6.2-11.6-8.6-17.7-8.6c-2.3,0-4.6,0.3-6.8,0.9l-97.7,23.2c-13.5,3.2-21.8,16.7-18.6,30.2
			c2.7,11.3,12.8,19.3,24.4,19.3c2,0,3.9-0.2,5.8-0.7l83.2-19.7c5.4,6,32.5,35.3,37.4,40.5l0,0c-34.4,36.9-68.8,73.7-103.2,110.4
			c-0.5,0.6-1,1.2-1.5,1.8c-10,12.8-7,32.9,8.1,40.5l18.3,9.3l87.2,44.5l-54.8,88.7c-7.5,12.2-3.7,28.2,8.5,35.8
			c4.1,2.5,8.8,3.9,13.6,3.8l0,0c9,0,17.4-4.7,22.1-12.3L376.7,359c7.5-12.2,3.7-28.2-8.6-35.8c0,0,0,0,0,0
			c-0.6-0.4-1.3-0.7-1.9-1.1l-71.4-36.3l75.1-80.4l56.7,48.1c4.5,3.8,10.3,6,16.2,5.9c6.3,0,12.5-2.4,17.1-6.7l65.1-60.6
			c9.9-9.7,10-25.6,0.3-35.5c-9.3-9.5-24.5-10.1-34.5-1.3l-48.7,45.3C442.1,200.7,320,85.9,298.7,64z"/>
	</g>
</g>
</svg>
