<?xml version="1.0" encoding="utf-8"?>
<!-- Generator: Adobe Illustrator 19.2.1, SVG Export Plug-In . SVG Version: 6.00 Build 0)  -->
<svg version="1.1" id="Capa_1" xmlns="http://www.w3.org/2000/svg" xmlns:xlink="http://www.w3.org/1999/xlink" x="0px" y="0px"
	 viewBox="0 0 506 554" style="enable-background:new 0 0 506 554;" xml:space="preserve">
<style type="text/css">
	.st0{fill:#FFFFFF;}
</style>
<title>handicapped</title>
<g>
	
		<image style="overflow:visible;opacity:0.75;enable-background:new    ;" width="506" height="554" xlink:href="AB22CE1075479C84.png" >
	</image>
	<path class="st0" d="M482,373.8c-5.9-12.1-20.5-17.2-32.6-11.3l-28.1,13.7l-52.7-101.4c-4.2-8.1-12.6-13.2-21.7-13.1H229.3V209
		h91.3c13.5,0,24.4-10.9,24.4-24.4s-10.9-24.4-24.4-24.4h-91.3v-33.5c0-1.9-0.2-3.8-0.7-5.6c26.1-13.1,36.6-44.9,23.5-70.9
		C239,24,207.3,13.5,181.2,26.6s-36.6,44.9-23.5,70.9c5.1,10.1,13.3,18.4,23.5,23.5c-0.4,1.8-0.7,3.7-0.7,5.6v41.2
		c-89.6,12-159,88.9-159,181.7c0,101.1,82.3,183.4,183.4,183.4c82.5,0,152.4-54.7,175.4-129.8l8.6,16.5
		c6.1,11.7,20.5,16.5,32.4,10.7l49.5-24.1C482.9,400.5,487.9,385.9,482,373.8C482,373.8,482,373.8,482,373.8z M351.7,349.6
		c0,80.9-65.8,146.8-146.8,146.8S58.2,430.5,58.2,349.6c0-72.6,53-133.1,122.3-144.7V286c0,13.5,10.9,24.4,24.4,24.4c0,0,0,0,0,0
		h127.1l19.6,37.7C351.6,348.6,351.7,349.1,351.7,349.6z"/>
</g>
</svg>
