<?xml version="1.0" encoding="utf-8"?>
<!-- Generator: Adobe Illustrator 19.2.1, SVG Export Plug-In . SVG Version: 6.00 Build 0)  -->
<svg version="1.1" id="Capa_1" xmlns="http://www.w3.org/2000/svg" xmlns:xlink="http://www.w3.org/1999/xlink" x="0px" y="0px"
	 viewBox="0 0 376 555" style="enable-background:new 0 0 376 555;" xml:space="preserve">
<style type="text/css">
	.st0{fill:#FFFFFF;}
</style>
<title>hiking</title>
<g>
	
		<image style="overflow:visible;opacity:0.75;enable-background:new    ;" width="376" height="555" xlink:href="D779503E3265A70D.png" >
	</image>
	<g>
		<path class="st0" d="M177.4,103.3c10.8,0.2,21.2-4.2,28.8-11.9c7.8-7.5,12.1-17.9,11.9-28.8c0.2-10.8-4.2-21.2-11.9-28.8
			c-7.5-7.8-17.9-12.1-28.7-11.9c-11-0.1-21.5,4.2-29.3,11.9c-8.3,8-12.5,17.5-12.5,28.8c0,11.2,4.2,20.8,12.5,28.8
			C155.8,99.2,166.4,103.5,177.4,103.3z"/>
		<path class="st0" d="M107.4,109.8c2.2-8-0.7-12.7-8.7-14.1l-33.6-8.7c-7.9-1.4-13,1.5-15.2,8.7L21.7,212.9
			c-2.2,7.2,0.7,11.6,8.7,13l33.6,8.7c8,1.4,13-1.4,15.2-8.7L107.4,109.8z"/>
		<path class="st0" d="M265.8,523.1v1.1c0,5.8,3.3,8.7,9.8,8.7c5.8,0,9-2.5,9.8-7.6l69.4-365.6v-1.1c0-5.8-3.3-8.7-9.8-8.7
			c-5.1,0-8.3,2.5-9.8,7.6L265.8,523.1z"/>
		<path class="st0" d="M35.8,499.3v5.4c-0.1,7.7,2.8,15.1,8.1,20.6c5.1,5.7,12.4,8.8,20.1,8.7c14.5,0,23.9-6.9,28.2-20.6l49.9-200.7
			l47.8,199.6c1.6,6,5,11.3,9.8,15.2c5.1,4.3,11.7,6.7,18.4,6.5c7.6,0.1,14.9-3,20.1-8.7c5.3-5.5,8.2-12.9,8.1-20.6v-5.4
			l-65.1-265.8l5.4-22.8l4.3,18.4c0.6,3.4,2.3,6.4,4.9,8.7c2.5,2.2,4.9,3.2,7,3.2l3.2,1.1l67.2,16.3h3.2c5.4,0.1,10.6-1.8,14.6-5.4
			c3.8-3.2,6-8,6-13c0-10.1-5.1-16.6-15.2-19.5l-58.6-14.1l-16.2-62.9c-2.1-10.1-6.7-18.1-13.6-23.9c-6.9-5.8-13.2-9-19-9.8
			l-9.8-1.1c-9-0.1-17.8,2.7-24.9,8.1c-7.2,5.4-11.9,11-14.1,16.8l-2.2,8.7L35.8,499.3z"/>
	</g>
</g>
</svg>
