<?xml version="1.0" encoding="utf-8"?>
<!-- Generator: Adobe Illustrator 19.2.1, SVG Export Plug-In . SVG Version: 6.00 Build 0)  -->
<svg version="1.1" id="Capa_1" xmlns="http://www.w3.org/2000/svg" xmlns:xlink="http://www.w3.org/1999/xlink" x="0px" y="0px"
	 viewBox="0 0 525 555" style="enable-background:new 0 0 525 555;" xml:space="preserve">
<style type="text/css">
	.st0{fill:#FFFFFF;}
</style>
<title>historic</title>
<g>
	
		<image style="overflow:visible;opacity:0.75;enable-background:new    ;" width="525" height="555" xlink:href="84E5BF90CCF7244B.png" >
	</image>
	<path class="st0" d="M433.7,192.9H92.3C92.3,98,168.7,21,263,21S433.7,98,433.7,192.9z M487.4,499.9H38.6
		c-9.1,0-16.6,7.4-16.6,16.6c0,9.1,7.4,16.6,16.6,16.6c0,0,0,0,0,0h448.8c9.1,0,16.6-7.4,16.6-16.6
		C503.9,507.3,496.5,499.9,487.4,499.9L487.4,499.9L487.4,499.9z M108,455.3v-220H79.6c-9.1,0-16.6-7.4-16.6-16.6
		c0-9.1,7.4-16.6,16.6-16.6c0,0,0,0,0,0h366.8c9.1,0,16.6,7.4,16.6,16.6c0,9.1-7.4,16.5-16.6,16.6H418v220h28.4
		c9.1,0,16.6,7.4,16.6,16.6s-7.4,16.6-16.6,16.6c0,0,0,0,0,0H79.6c-9.1,0-16.6-7.4-16.6-16.6c0-9.1,7.4-16.6,16.6-16.6c0,0,0,0,0,0
		H108z M292.6,455.3v-220h-59.2v220H292.6L292.6,455.3z M384.9,235.3h-59.2v220h59.2L384.9,235.3L384.9,235.3z M141.1,455.3h59.2
		v-220h-59.2L141.1,455.3L141.1,455.3L141.1,455.3z"/>
</g>
</svg>
