<?xml version="1.0" encoding="utf-8"?>
<!-- Generator: Adobe Illustrator 19.2.1, SVG Export Plug-In . SVG Version: 6.00 Build 0)  -->
<svg version="1.1" id="Capa_1" xmlns="http://www.w3.org/2000/svg" xmlns:xlink="http://www.w3.org/1999/xlink" x="0px" y="0px"
	 viewBox="0 0 554 534" style="enable-background:new 0 0 554 534;" xml:space="preserve">
<style type="text/css">
	.st0{fill:#FFFFFF;}
</style>
<title>horsebackRiding</title>
<g>
	
		<image style="overflow:visible;opacity:0.75;enable-background:new    ;" width="554" height="534" xlink:href="A243446C14AA3BE5.png" >
	</image>
	<g>
		<path class="st0" d="M220.2,91.2c9.6,0.2,18.8-3.6,25.5-10.4c6.9-6.9,10.4-15.1,10.4-24.5s-3.5-17.5-10.4-24.5
			c-14.2-13.9-36.8-13.9-51,0c-6.9,6.9-10.4,15.1-10.4,24.5s3.5,17.5,10.4,24.5C201.4,87.6,210.7,91.4,220.2,91.2z"/>
		<path class="st0" d="M531.8,164c-1.9-6.1-6-11.2-11.4-14.6l-71.8-45.8l4.2-36.4L308.1,213.9h-52v-33.3l44.7,10.4
			c4.3,0.7,8.8-0.3,12.5-2.6c7.8-4.5,10.6-14.4,6.1-22.2c-0.1-0.2-0.3-0.4-0.4-0.6c-2.4-3.8-6.4-6.3-10.9-6.8l-52-13.5v-11.4
			c0-9.7-3.8-17.9-11.4-24.4c-7.3-6.5-16.8-10-26.5-9.9c-9.6-0.2-18.9,3.4-26,9.9c-7.1,6.1-11.1,15.1-10.9,24.4v80.1H74.1
			c-15.3,0-27.9,4.3-38,13S21,246.9,21,260.8v81.1h32.2v-80.1l20.8-29.1v99.9l-20.8,30.2v126.9c0,5.5,2.8,10.8,8.3,15.6
			s11.6,7.3,18.2,7.3c6.7,0,13.1-2.4,18.2-6.8c5.5-4.5,8.3-9.9,8.3-16.1V379.4l21.8-35.4v37.5l52,118.6c3.3,5.4,8.5,9.3,14.6,10.9
			c6.1,1.8,12.7,1,18.3-2.1c5.9-3.1,9.7-7.6,11.4-13.5c1.7-5.8,0.8-12.1-2.6-17.2l-44.7-102l21.9-34.3h120.6v147.8
			c-0.1,5.9,1.9,11.6,5.7,16.1c3.8,4.5,9,6.8,15.6,6.8s11.8-2.3,15.6-6.8c3.8-4.5,5.8-10.2,5.7-16.1V343l55.1-106.1
			c6.1,1.4,12.4,2.1,18.7,2.1c14.1,0.2,27.8-4.4,39-13c11.2-8.3,19.1-20.3,22.4-33.8l6.2,1c11.8,2.1,20.5-1.7,26-11.4
			C533.2,176.4,533.9,169.9,531.8,164z M467.3,216c-8.9,6.9-19.9,10.6-31.2,10.4c-3.8,0-7.7-0.3-11.4-1l22.9-42.7L485,190
			C482.2,200.4,476,209.6,467.3,216z"/>
	</g>
</g>
</svg>
