<?xml version="1.0" encoding="utf-8"?>
<!-- Generator: Adobe Illustrator 19.2.1, SVG Export Plug-In . SVG Version: 6.00 Build 0)  -->
<svg version="1.1" id="Capa_1" xmlns="http://www.w3.org/2000/svg" xmlns:xlink="http://www.w3.org/1999/xlink" x="0px" y="0px"
	 viewBox="0 0 554 543" style="enable-background:new 0 0 554 543;" xml:space="preserve">
<style type="text/css">
	.st0{fill:#FFFFFF;}
</style>
<title>picnic</title>
<g id="Layer_1">
	
		<image style="overflow:visible;opacity:0.75;enable-background:new    ;" width="554" height="543" xlink:href="DBAAA15FE2853843.png" >
	</image>
	<g>
		<path class="st0" d="M511.2,382.1h-82.7l-42.5-114.8h26.4c15.2,0,27.6-12.3,27.6-27.6s-12.3-27.6-27.6-27.6l0,0H141.5
			c-15.2,0-27.6,12.3-27.6,27.6s12.3,27.6,27.6,27.6h26.4l-42.5,114.8H42.8c-11.5,0-21.8,10.3-21.8,21.8s10.3,21.8,21.8,21.8h65.4
			L83,492.3c-4.6,11.5,1.2,24.1,12.6,27.5c2.3,1.2,4.6,1.2,8,1.2c9-0.1,17.1-5.5,20.7-13.8l31-82.6h243.4l31,82.6
			c3.4,9.2,11.5,13.8,20.7,13.8c2.7,0.1,5.4-0.3,8-1.2c11.5-4.6,17.2-17.2,12.6-27.5l-25.2-66.6h65.4c11.5,0,21.8-10.3,21.8-21.8
			C533,391.3,523.8,382.1,511.2,382.1z M171.4,382.1l42.5-114.8h126.3l42.5,114.8L171.4,382.1L171.4,382.1L171.4,382.1z"/>
		<path class="st0" d="M215,180.1c2.3,8,9.2,12.6,17.2,12.6h87.2c7.8-0.2,14.7-5.2,17.2-12.6l21.8-70c1.1-5.7,1.1-11.5-2.3-16.1
			s-9.2-6.9-14.9-6.9h-49.4V37.7c0-8.9-7.2-16.1-16.1-16.1c-8.9,0-16.1,7.2-16.1,16.1v49.4h-49.4c-5.7,0-11.5,2.3-14.9,6.9
			c-3.6,4.5-4.5,10.7-2.3,16L215,180.1z"/>
	</g>
</g>
</svg>
