<?xml version="1.0" encoding="utf-8"?>
<!-- Generator: Adobe Illustrator 19.2.1, SVG Export Plug-In . SVG Version: 6.00 Build 0)  -->
<svg version="1.1" id="Capa_1" xmlns="http://www.w3.org/2000/svg" xmlns:xlink="http://www.w3.org/1999/xlink" x="0px" y="0px"
	 viewBox="0 0 554 427" style="enable-background:new 0 0 554 427;" xml:space="preserve">
<style type="text/css">
	.st0{fill:#FFFFFF;}
	.st1{fill:#E9C893;}
</style>
<title>rangerStation</title>
<g>
	<g>
		
			<image style="overflow:visible;opacity:0.75;enable-background:new    ;" width="554" height="427" xlink:href="A107E9ADD1B7533C.png" >
		</image>
		<path class="st0" d="M416.7,199v-19.8h15.5v-39.7L281.1,85.3V54.5c14.4,4.9,25.2-11,40.3-1.9v-28c-15.1-9.1-25.9,6.8-40.3,1.9v-5
			h-8v63.8l-151.3,54.3v39.7h15.5v19.8H21v28.7h18.1v164.4H118V406h318v-13.8h78.9V227.8H533v-28.7H416.7V199L416.7,199z
			 M108.1,352.3H72V250h36L108.1,352.3L108.1,352.3z M212.3,331.8h-39.2v-43.1h39.2L212.3,331.8L212.3,331.8L212.3,331.8z
			 M212.3,263.7h-39.2v-43.1h39.2L212.3,263.7L212.3,263.7L212.3,263.7z M301.8,378.3h-49.6v-93h49.6V378.3z M257.4,263.7v-43.1
			h39.2v43.1H257.4L257.4,263.7z M306.3,197.1c0,0-18.7,12.4-29.3,12.4s-29.3-12.4-29.3-12.4V130c0,0,10.6,4.1,29.3,4.1
			s29.3-4.1,29.3-4.1V197.1z M380.9,331.8h-39.2v-43.1h39.2L380.9,331.8L380.9,331.8L380.9,331.8z M380.9,263.7h-39.2v-43.1h39.2
			L380.9,263.7L380.9,263.7L380.9,263.7z M482,352.3h-36V250h36V352.3z"/>
	</g>
	<path class="st1" d="M274.1,145c0,0.9,0.4,1.8,1.2,2.3l-5.5,8.3l-10.2,0.6c-0.1-1.5-1.4-2.7-2.9-2.7c-1.6,0-2.9,1.3-2.9,2.9
		c0,1.6,1.3,2.9,2.9,2.9c0.5,0,0.9-0.1,1.3-0.3l4.5,9.1l-4.5,9.2c-0.4-0.2-0.8-0.3-1.3-0.3c-1.6,0-2.9,1.3-2.9,2.9
		c0,1.6,1.3,2.9,2.9,2.9c1.5,0,2.8-1.2,2.9-2.7l10.2,0.6l5.5,8.3c-0.7,0.5-1.2,1.4-1.2,2.3c0,1.6,1.3,2.9,2.9,2.9
		c1.6,0,2.9-1.3,2.9-2.9l0,0c0-0.9-0.4-1.8-1.2-2.3l5.5-8.3l10.2-0.6c0.1,1.5,1.4,2.7,2.9,2.7c1.6,0,2.9-1.3,2.9-2.9
		c0-1.6-1.3-2.9-2.9-2.9c-0.5,0-0.9,0.1-1.3,0.3l-4.5-9.2l4.5-9.1c0.4,0.2,0.8,0.3,1.3,0.3c1.6,0,2.9-1.3,2.9-2.9
		c0-1.6-1.3-2.9-2.9-2.9c-1.5,0-2.8,1.2-2.9,2.7l-10.2-0.6l-5.5-8.3c0.7-0.5,1.2-1.4,1.2-2.3c0-1.6-1.3-2.9-2.9-2.9
		C275.4,142.1,274.1,143.4,274.1,145z M286.5,168.2c0,5.2-4.3,9.5-9.5,9.5s-9.5-4.3-9.5-9.5s4.3-9.5,9.5-9.5S286.5,163,286.5,168.2
		L286.5,168.2L286.5,168.2z"/>
</g>
<rect x="238" y="122.7" class="st0" width="77" height="90"/>
</svg>
