<?xml version="1.0" encoding="utf-8"?>
<!-- Generator: Adobe Illustrator 19.2.1, SVG Export Plug-In . SVG Version: 6.00 Build 0)  -->
<svg version="1.1" id="Capa_1" xmlns="http://www.w3.org/2000/svg" xmlns:xlink="http://www.w3.org/1999/xlink" x="0px" y="0px"
	 viewBox="0 0 546 555" style="enable-background:new 0 0 546 555;" xml:space="preserve">
<style type="text/css">
	.st0{fill:#FFFFFF;}
</style>
<title>restroom</title>
<g id="_Group_">
	
		<image style="overflow:visible;opacity:0.75;enable-background:new    ;" width="546" height="555" xlink:href="C25D415A63176A84.png" >
	</image>
	<g>
		<circle id="_Path_" class="st0" cx="117.9" cy="96.5" r="39.2"/>
		<path id="_Path_2" class="st0" d="M168.5,148.2H66.9c-24.6,0.1-44.5,19.9-44.7,44.5l-0.7,138.8c-0.1,10.4,8.3,18.9,18.8,19
			c0,0,0,0,0,0h0.1c10.4,0,18.8-8.4,18.9-18.8L60,192.8c0.1-2.1,1.9-3.7,3.9-3.6c1.9,0.1,3.5,1.6,3.6,3.6v317.5
			c-0.3,12.5,9.6,22.9,22.2,23.2c12.5,0.3,22.9-9.6,23.2-22.2c0-0.3,0-0.7,0-1V334.1c0.1-2.7,2.4-4.8,5.1-4.7
			c2.5,0.1,4.6,2.1,4.7,4.7v176.3c-0.3,12.5,9.6,22.9,22.2,23.2s22.9-9.6,23.2-22.2c0-0.3,0-0.7,0-1l-0.4-317.5
			c0.3-2.2,2.4-3.7,4.6-3.3c1.7,0.3,3,1.6,3.3,3.3l0.7,138.8c0.1,10.4,8.5,18.8,18.9,18.8h0.1c10.4-0.1,18.8-8.6,18.8-19
			c0,0,0,0,0,0l0,0l-0.7-138.8C213,168,193.1,148.2,168.5,148.2z"/>
		<path id="_Path_3" class="st0" d="M357.5,510.3c0,12.5,10.1,22.7,22.7,22.7s22.7-10.1,22.7-22.7V379.1h-45.3V510.3z"/>
		<path id="_Path_4" class="st0" d="M412.6,510.3c0,12.5,10.1,22.7,22.7,22.7s22.7-10.1,22.7-22.7V379.1h-45.3V510.3z"/>
		<path id="_Path_5" class="st0" d="M524.3,328.7l-21.1-137.5c-1-23.9-20.7-42.8-44.6-42.9H356.9c-24.1,0.1-43.8,19.2-44.7,43.3
			l-16.1,137.8c-1.2,10.4,6.2,19.7,16.6,20.9c10.4,1.2,19.7-6.2,20.9-16.6l0,0c15.5-133.5,16.2-139.2,16.3-140.8
			c0.2-1.5,1.5-2.6,3.1-2.4c1.4,0.2,2.5,1.4,2.5,2.9l-11.7,155.8c-0.4,4.8,3.2,9,8,9.4h0.7h110c4.8,0,8.7-3.9,8.7-8.7v0
			c0-0.2,0-0.4,0-0.7l-11.7-155.6c0.1-1.7,1.4-3,3.1-2.9c1.4,0,2.5,1,2.8,2.3c0.2,2.1,1,7.7,21.5,141.5c2,10.2,11.9,17,22.1,15
			C518.8,347.5,525.4,338.5,524.3,328.7z"/>
		<circle id="_Path_6" class="st0" cx="407.7" cy="96.6" r="39.1"/>
		<path id="_Path_7" class="st0" d="M257.8,21c-9.1,0-16.5,7.4-16.5,16.5v479c0,9.1,7.4,16.5,16.5,16.5s16.5-7.4,16.5-16.5l0,0v-479
			C274.3,28.4,266.9,21,257.8,21z"/>
	</g>
</g>
</svg>
