<?xml version="1.0" encoding="utf-8"?>
<!-- Generator: Adobe Illustrator 19.2.1, SVG Export Plug-In . SVG Version: 6.00 Build 0)  -->
<svg version="1.1" id="Capa_1" xmlns="http://www.w3.org/2000/svg" xmlns:xlink="http://www.w3.org/1999/xlink" x="0px" y="0px"
	 viewBox="0 0 554 545" style="enable-background:new 0 0 554 545;" xml:space="preserve">
<style type="text/css">
	.st0{fill:#FFFFFF;}
</style>
<title>scenicView</title>
<g>
	
		<image style="overflow:visible;opacity:0.75;enable-background:new    ;" width="554" height="545" xlink:href="FCB0BDC0745ED782.png" >
	</image>
	<g>
		<rect x="251.8" y="112.1" class="st0" width="50.4" height="210.1"/>
		<path class="st0" d="M227.6,41.4c0-10.9-8.9-19.8-19.8-19.8h-58.5c-10.9,0-19.8,8.9-19.8,19.8v51.4h98.1L227.6,41.4L227.6,41.4
			L227.6,41.4z"/>
		<path class="st0" d="M198.4,350.8c0-16.1,13-29.2,29.1-29.2c0,0,0,0,0,0h0.1V112.1H100.3c-10.9,0-19.8,8.9-19.8,19.8v46.2
			c0,46.1-10.2,91.6-29.7,133.3l0,0C31.2,353.1,21,398.6,21.1,444.7v16.7h177.4L198.4,350.8L198.4,350.8z"/>
		<path class="st0" d="M21,503.2c0,10.9,8.9,19.8,19.8,19.8h137.9c10.9,0,19.8-8.9,19.8-19.8v-25.4H21V503.2L21,503.2L21,503.2z"/>
		<path class="st0" d="M424.4,41.4c0-10.9-8.9-19.8-19.8-19.8h-58.5c-10.9,0-19.8,8.9-19.8,19.8v51.4h98.1L424.4,41.4L424.4,41.4
			L424.4,41.4z"/>
		<path class="st0" d="M533,444.7c0-46.1-10.2-91.6-29.8-133.4l0,0c-19.6-41.7-29.8-87.2-29.8-133.3v-46.2
			c0-10.9-8.9-19.8-19.8-19.8H326.3v209.5l0,0c16.1,0,29.2,13.1,29.2,29.2v110.6h177.5L533,444.7L533,444.7z"/>
		<path class="st0" d="M355.5,503.2c0,10.9,8.9,19.8,19.8,19.8h137.9c10.9,0,19.8-8.9,19.8-19.8v-25.4H355.5V503.2L355.5,503.2
			L355.5,503.2z"/>
	</g>
</g>
</svg>
