<?xml version="1.0" encoding="utf-8"?>
<!-- Generator: Adobe Illustrator 19.2.1, SVG Export Plug-In . SVG Version: 6.00 Build 0)  -->
<svg version="1.1" id="Capa_1" xmlns="http://www.w3.org/2000/svg" xmlns:xlink="http://www.w3.org/1999/xlink" x="0px" y="0px"
	 viewBox="0 0 554 554" style="enable-background:new 0 0 554 554;" xml:space="preserve">
<style type="text/css">
	.st0{fill:#FFFFFF;}
	.st1{fill:#FFFFFF;}
</style>
<title>smallBoatLaunch</title>
<g>
	<g>
		
			<image style="overflow:visible;opacity:0.75;enable-background:new    ;" width="270" height="174" xlink:href="55BC281EEB0C669A.png"  transform="matrix(1 0 0 1 225 239)">
		</image>
		<path class="st0" d="M406.9,260.3c-5.1,31.7-32.5,55-64.6,55H267l-20.4,42.5c6.5,7.9,7.8,18.9,3.4,28.2l-2.5,5.1h159.2
			c36.1,0.5,65.8-28.4,66.3-64.5s-28.4-65.8-64.5-66.3L406.9,260.3L406.9,260.3z"/>
	</g>
	<g>
		
			<image style="overflow:visible;opacity:0.75;enable-background:new    ;" width="554" height="554" xlink:href="55BC281EEB0C669E.png" >
		</image>
		<path class="st1" d="M426.7,21H127.3C68.6,21.1,21.1,68.6,21,127.3v299.4c0.1,58.7,47.6,106.2,106.3,106.3h299.4
			c58.7-0.1,106.2-47.6,106.3-106.3V127.3C532.9,68.6,485.4,21.1,426.7,21z M513.5,403.8c-12.1,1.3-19.5,5.1-26.2,8.5
			c-7.3,3.7-13,6.6-25.7,6.6s-18.5-2.9-25.7-6.6c-8.3-4.2-17.8-9-35.8-9s-27.5,4.8-35.8,9c-7.3,3.7-13,6.6-25.7,6.6
			s-18.4-2.9-25.7-6.6c-8.3-4.2-17.8-9-35.8-9s-27.5,4.8-35.8,9c-1.8,0.9-3.4,1.8-5.2,2.5l-7.5,15.7c-2.1,4.3-5.3,8-9.3,10.6
			c15.7-0.6,24.4-5,32.1-8.9c7.3-3.7,13-6.6,25.7-6.6s18.4,2.9,25.7,6.6c8.3,4.2,17.8,9,35.8,9s27.5-4.8,35.8-9
			c7.3-3.7,13-6.6,25.7-6.6s18.4,2.9,25.7,6.6c8.3,4.2,17.8,9,35.8,9s27.5-4.8,35.8-9c5.1-2.6,9.5-4.8,16.1-5.9v0.4
			c-0.1,47.9-38.9,86.8-86.8,86.9H127.3c-47.9-0.1-86.8-38.9-86.8-86.9v-0.5c6.8,1.1,11.2,3.3,16.4,5.9c8.3,4.2,17.8,9,35.8,9
			s27.5-4.8,35.8-9c7.3-3.7,13-6.6,25.7-6.6c4.9-0.1,9.7,0.5,14.4,1.8c-1.5-2-2.6-4.3-3.4-6.6c-1.9-5.4-1.9-11.3-0.2-16.8
			c-3.6-0.4-7.2-0.7-10.8-0.7c-18,0-27.5,4.8-35.8,9c-7.3,3.7-13,6.6-25.7,6.6S74.2,416,67,412.3c-6.8-3.4-14.3-7.2-26.5-8.5v-12.7
			h130.4l16.8-35.1c4.5-9.2,13.8-15.1,24.1-15l12.4-25.8h-10.4l13.8-67.9L238,254c3.3,2.1,7.2,2.9,11,2.5l16.7-2.1L218,353.7
			c-7.6-3.6-16.7-0.4-20.3,7.2l-21.4,44.6c-3.6,7.6-0.4,16.7,7.1,20.3c0,0,0,0,0,0l0,0l14.8,7.1c7.6,3.6,16.7,0.4,20.3-7.1
			c0,0,0,0,0,0l0,0l21.4-44.6c3.6-7.6,0.4-16.7-7.1-20.3l52.2-108.9l5.9-0.7c9.1-1.1,15.6-9.5,14.5-18.6c-0.3-2-0.9-4-1.8-5.8
			c0.5-0.6,0.9-1.3,1.2-2l3.9-8.1c3.6-7,0.8-15.6-6.2-19.2c-7-3.5-15.5-0.8-19.1,6.1c-0.1,0.3-0.3,0.5-0.4,0.8l-3.9,8.1
			c-1,2.1-1.5,4.4-1.4,6.7l-27,3.4l-37.9-23.9l-0.1-0.1c-17.9-12-42.1-7.1-54.1,10.8c-2.8,4.2-4.8,8.9-5.8,13.9l-18.7,92.1H40.4
			v-188c0.1-47.9,38.9-86.8,86.8-86.8h299.4c47.9,0.1,86.8,38.9,86.8,86.8V403.8z"/>
	</g>
	<g>
		
			<image style="overflow:visible;opacity:0.75;enable-background:new    ;" width="131" height="131" xlink:href="55BC281EEB0C6699.png"  transform="matrix(1 0 0 1 161 87)">
		</image>
		<circle class="st1" cx="226.3" cy="152.3" r="43.8"/>
	</g>
</g>
</svg>
