<?xml version="1.0" encoding="iso-8859-1"?>
<!-- Generator: Adobe Illustrator 16.0.0, SVG Export Plug-In . SVG Version: 6.00 Build 0)  -->
<!DOCTYPE svg PUBLIC "-//W3C//DTD SVG 1.1//EN" "http://www.w3.org/Graphics/SVG/1.1/DTD/svg11.dtd">
<svg xmlns="http://www.w3.org/2000/svg" xmlns:xlink="http://www.w3.org/1999/xlink" version="1.1" id="Capa_1" x="0px" y="0px" width="512px" height="512px" viewBox="0 0 567.501 567.501" style="enable-background:new 0 0 567.501 567.501;" xml:space="preserve">
<g>
	<g>
		<path d="M514.504,254.301c63.428-52.537,21.756-133.882,21.756-133.882L456.836,0L444.05,156.934c0,0,11.537-10.245,27.55-31.375    c23.682,30.092,33.293,70.445,0,92.231c-61.502,40.345-85.843-31.397-85.843-31.397s-34.594-86.45-56.991-156.93    c-22.432,23.057-53.847,18.581-53.847,18.581s31.415,101.209,65.35,175.519C386.417,291.449,451.094,306.82,514.504,254.301    L514.504,254.301z" fill="#828082"/>
		<path d="M330.813,332.778c-11.485-19.985-36.585-42.591-90.081-57.052l11.797,65.341c-43.502,12.005-91.004,37.356-141.416,82.395    l-93.311-77.793c0,0,27.511,110.105,0,210.634c39.812-36.589,73.459-65.181,95.918-83.475    c116.845,91.299,233.087,166.619,418.339-23.378C532.061,449.45,454.858,340.911,330.813,332.778L330.813,332.778z" fill="#828082"/>
	</g>
</g>
<g>
</g>
<g>
</g>
<g>
</g>
<g>
</g>
<g>
</g>
<g>
</g>
<g>
</g>
<g>
</g>
<g>
</g>
<g>
</g>
<g>
</g>
<g>
</g>
<g>
</g>
<g>
</g>
<g>
</g>
</svg>
