<?xml version="1.0" encoding="iso-8859-1"?>
<!-- Generator: Adobe Illustrator 18.1.1, SVG Export Plug-In . SVG Version: 6.00 Build 0)  -->
<svg xmlns="http://www.w3.org/2000/svg" xmlns:xlink="http://www.w3.org/1999/xlink" version="1.1" id="Capa_1" x="0px" y="0px" viewBox="0 0 612.003 612.003" style="enable-background:new 0 0 612.003 612.003;" xml:space="preserve" width="512px" height="512px">
<g>
	<path d="M579.71,421.651c-7.058-14.492-24.533-20.518-39.005-13.46L507.09,424.56l-62.977-121.201   c-5.021-9.661-15.006-15.724-25.892-15.724H277.707v-62.948h109.124c16.115,0,29.178-13.063,29.178-29.178   s-13.063-29.178-29.178-29.178H277.707v-40.005c0-2.32-0.301-4.566-0.811-6.731c20.634-10.393,34.797-31.751,34.797-56.432   C311.693,28.279,283.411,0,248.527,0s-63.164,28.279-63.164,63.164c0,24.681,14.163,46.042,34.8,56.432   c-0.511,2.165-0.811,4.409-0.811,6.731v49.298c-107.111,14.32-190.01,106.227-190.01,217.189   c0,120.859,98.326,219.188,219.188,219.188c98.565,0,182.124-65.407,209.603-155.091l10.279,19.782   c5.185,9.979,15.356,15.73,25.913,15.73c4.292,0,8.645-0.948,12.754-2.95l59.175-28.816   C580.74,453.601,586.765,436.138,579.71,421.651z M423.948,392.815c0,96.727-78.692,175.422-175.419,175.422   S73.108,489.545,73.108,392.815c0-86.786,63.356-159.041,146.244-172.979v96.975c0,16.115,13.066,29.178,29.178,29.178h151.971   l23.395,45.027C423.901,391.61,423.948,392.226,423.948,392.815z" fill="#828082"/>
</g>
<g>
</g>
<g>
</g>
<g>
</g>
<g>
</g>
<g>
</g>
<g>
</g>
<g>
</g>
<g>
</g>
<g>
</g>
<g>
</g>
<g>
</g>
<g>
</g>
<g>
</g>
<g>
</g>
<g>
</g>
</svg>
