<?xml version="1.0" encoding="utf-8"?>
<!-- Generator: Adobe Illustrator 19.2.1, SVG Export Plug-In . SVG Version: 6.00 Build 0)  -->
<svg version="1.1" id="Capa_1" xmlns="http://www.w3.org/2000/svg" xmlns:xlink="http://www.w3.org/1999/xlink" x="0px" y="0px"
	 viewBox="0 0 512 512" style="enable-background:new 0 0 512 512;" xml:space="preserve">
<style type="text/css">
	.st0{fill:#828082;}
</style>
<g>
	<path class="st0" d="M395.7,241.3v-19.8h15.5v-39.7l-151.1-54.2V96.8c14.4,4.9,25.2-11,40.3-1.9c0-11.2,0-16.8,0-28
		c-15.1-9.1-25.9,6.8-40.3,1.9v-5h-8v63.8l-151.3,54.3v39.7h15.5v19.8H0v28.7h18.1v164.4H97v13.8h318v-13.8h78.9V270.1H512v-28.7
		H395.7z M87.1,394.6H51V292.3h36V394.6z M191.3,374.1h-39.2V331h39.2V374.1z M191.3,306h-39.2v-43.1h39.2V306z M280.8,420.6h-49.6
		v-93h49.6V420.6z M236.4,306v-43.1h39.2V306H236.4z M285.3,239.4c0,0-18.7,12.4-29.3,12.4c-10.6,0-29.3-12.4-29.3-12.4v-67.1
		c0,0,10.6,4.1,29.3,4.1c18.6,0,29.3-4.1,29.3-4.1V239.4z M359.9,374.1h-39.2V331h39.2V374.1z M359.9,306h-39.2v-43.1h39.2V306z
		 M461,394.6h-36V292.3h36V394.6z"/>
	<path class="st0" d="M253.1,187.3c0,1,0.5,1.8,1.2,2.3l-5.5,8.3l-10.2,0.6c-0.1-1.5-1.3-2.7-2.9-2.7c-1.6,0-2.9,1.3-2.9,2.9
		c0,1.6,1.3,2.9,2.9,2.9c0.5,0,0.9-0.1,1.3-0.3l4.5,9.1l-4.5,9.2c-0.4-0.2-0.8-0.3-1.3-0.3c-1.6,0-2.9,1.3-2.9,2.9
		c0,1.6,1.3,2.9,2.9,2.9c1.6,0,2.8-1.2,2.9-2.7l10.2,0.6l5.5,8.3c-0.7,0.5-1.2,1.4-1.2,2.3c0,1.6,1.3,2.9,2.9,2.9
		c1.6,0,2.9-1.3,2.9-2.9c0-1-0.5-1.8-1.2-2.3l5.5-8.3l10.2-0.6c0.1,1.5,1.3,2.7,2.9,2.7c1.6,0,2.9-1.3,2.9-2.9
		c0-1.6-1.3-2.9-2.9-2.9c-0.5,0-0.9,0.1-1.3,0.3l-4.5-9.2l4.5-9.1c0.4,0.2,0.8,0.3,1.3,0.3c1.6,0,2.9-1.3,2.9-2.9
		c0-1.6-1.3-2.9-2.9-2.9c-1.5,0-2.8,1.2-2.9,2.7l-10.2-0.6l-5.5-8.3c0.7-0.5,1.2-1.4,1.2-2.3c0-1.6-1.3-2.9-2.9-2.9
		C254.4,184.4,253.1,185.7,253.1,187.3z M265.5,210.5c0,5.2-4.2,9.5-9.5,9.5c-5.2,0-9.5-4.2-9.5-9.5c0-5.2,4.2-9.5,9.5-9.5
		C261.2,201,265.5,205.3,265.5,210.5z"/>
</g>
<rect x="217" y="165" class="st0" width="77" height="90"/>
</svg>
