<?xml version="1.0" encoding="iso-8859-1"?>
<!-- Generator: Adobe Illustrator 18.0.0, SVG Export Plug-In . SVG Version: 6.00 Build 0)  -->
<!DOCTYPE svg PUBLIC "-//W3C//DTD SVG 1.1//EN" "http://www.w3.org/Graphics/SVG/1.1/DTD/svg11.dtd">
<svg xmlns="http://www.w3.org/2000/svg" xmlns:xlink="http://www.w3.org/1999/xlink" version="1.1" id="Capa_1" x="0px" y="0px" viewBox="0 0 460.29 460.29" style="enable-background:new 0 0 460.29 460.29;" xml:space="preserve" width="512px" height="512px">
<g id="XMLID_886_">
	<circle id="XMLID_917_" cx="90.755" cy="67.903" r="35.192" fill="#828082"/>
	<path id="XMLID_1185_" d="M136.192,114.313c-1.917,0,1.778,0-91.34,0c-22.047,0-40.073,17.936-40.184,39.983L4.042,279.044   c-0.047,9.377,7.517,17.018,16.895,17.065c0.029,0,0.058,0,0.087,0c9.338,0,16.931-7.546,16.978-16.895l0.626-124.748   c0.01-1.858,1.521-3.357,3.378-3.352c1.857,0.005,3.36,1.512,3.36,3.369l0.008,285.43c0,11.254,9.123,20.376,20.376,20.376   c11.254,0,20.376-9.122,20.376-20.376c0-5.762,0-131.895,0-158.465c0-2.434,1.973-4.407,4.407-4.407   c2.425,0,4.391,1.966,4.391,4.391c0,25.293,0,148.1,0,158.481c0,11.254,9.123,20.376,20.376,20.376s20.376-9.122,20.376-20.376   l-0.362-285.432c-0.003-1.959,1.583-3.55,3.542-3.554c1.959-0.004,3.552,1.579,3.558,3.539l0.626,124.748   c0.047,9.349,7.64,16.895,16.978,16.895c0.029,0,0.058,0,0.087,0c9.378-0.047,16.942-7.688,16.895-17.065l-0.627-124.748   C176.265,132.249,158.239,114.313,136.192,114.313z" fill="#828082"/>
	<path id="XMLID_1259_" d="M306.111,439.918c0,11.251,9.12,20.372,20.372,20.372c11.251,0,20.371-9.12,20.371-20.372V321.962   h-40.743V439.918z" fill="#828082"/>
	<path id="XMLID_1280_" d="M355.649,439.918c0,11.251,9.12,20.372,20.372,20.372c11.251,0,20.371-9.12,20.371-20.372V321.962   h-40.743V439.918z" fill="#828082"/>
	<path id="XMLID_1282_" d="M456.049,276.598l-19.003-123.643c-0.859-21.385-18.575-38.551-40.14-38.551c-2.989,0-24.381,0-91.316,0   c-21.684,0-39.478,17.355-40.154,38.903l-14.438,123.906c-1.085,9.313,5.585,17.741,14.898,18.827   c9.352,1.083,17.745-5.617,18.827-14.898c13.979-119.978,14.533-125.185,14.645-126.596c0.109-1.369,1.306-2.391,2.675-2.285   c1.369,0.106,2.393,1.3,2.29,2.67l-10.525,140.054c-0.164,2.178,0.587,4.326,2.073,5.927c1.486,1.601,3.571,2.511,5.755,2.511   h98.853c2.184,0,4.27-0.91,5.755-2.511c1.485-1.601,2.237-3.749,2.073-5.927l-10.515-139.922c-0.109-1.451,0.961-2.723,2.409-2.863   c1.448-0.141,2.744,0.901,2.916,2.346c0.221,1.859,0.877,6.907,19.364,127.21c1.425,9.27,10.095,15.624,19.358,14.2   C451.115,294.531,457.473,285.865,456.049,276.598z" fill="#828082"/>
	<circle id="XMLID_1283_" cx="351.248" cy="68.005" r="35.183" fill="#828082"/>
	<path id="XMLID_1284_" d="M216.486,0c-8.194,0-14.837,6.643-14.837,14.837v430.617c0,8.194,6.643,14.837,14.837,14.837   s14.837-6.643,14.837-14.837V14.837C231.323,6.643,224.68,0,216.486,0z" fill="#828082"/>
</g>
<g>
</g>
<g>
</g>
<g>
</g>
<g>
</g>
<g>
</g>
<g>
</g>
<g>
</g>
<g>
</g>
<g>
</g>
<g>
</g>
<g>
</g>
<g>
</g>
<g>
</g>
<g>
</g>
<g>
</g>
</svg>
