<?xml version="1.0" encoding="iso-8859-1"?>
<!-- Generator: Adobe Illustrator 16.0.0, SVG Export Plug-In . SVG Version: 6.00 Build 0)  -->
<!DOCTYPE svg PUBLIC "-//W3C//DTD SVG 1.1//EN" "http://www.w3.org/Graphics/SVG/1.1/DTD/svg11.dtd">
<svg xmlns="http://www.w3.org/2000/svg" xmlns:xlink="http://www.w3.org/1999/xlink" version="1.1" id="Capa_1" x="0px" y="0px" width="512px" height="512px" viewBox="0 0 905.4 905.401" style="enable-background:new 0 0 905.4 905.401;" xml:space="preserve">
<g>
	<rect x="408.1" y="169.35" width="89.201" height="371.6" fill="#828082"/>
	<path d="M365.4,44.35c0-19.3-15.7-35-35-35H227c-19.3,0-35,15.7-35,35v90.9h173.4V44.35z" fill="#828082"/>
	<path d="M313.8,591.55c0-28.5,23.1-51.601,51.6-51.601v-370.6H140.3c-19.3,0-35,15.7-35,35v81.7c0,81.5-18,162-52.6,235.8l0,0   C18,595.65,0.1,676.15,0.1,757.65v29.5h313.8v-195.6H313.8z" fill="#828082"/>
	<path d="M0,861.05c0,19.3,15.7,35,35,35h243.8c19.3,0,35-15.7,35-35v-44.9H0V861.05z" fill="#828082"/>
	<path d="M713.4,44.35c0-19.3-15.701-35-35-35H574.9c-19.301,0-35,15.7-35,35v90.9h173.4v-90.9H713.4z" fill="#828082"/>
	<path d="M905.4,757.65c0-81.5-18-162-52.6-235.8l0,0C818,448.05,800.1,367.55,800.1,286.05v-81.7c0-19.3-15.699-35-35-35H539.9   v370.6l0,0c28.5,0,51.6,23.101,51.6,51.601v195.5h313.801v-29.4H905.4z" fill="#828082"/>
	<path d="M591.6,861.05c0,19.3,15.701,35,35,35H870.4c19.299,0,35-15.7,35-35v-44.9H591.6V861.05z" fill="#828082"/>
</g>
<g>
</g>
<g>
</g>
<g>
</g>
<g>
</g>
<g>
</g>
<g>
</g>
<g>
</g>
<g>
</g>
<g>
</g>
<g>
</g>
<g>
</g>
<g>
</g>
<g>
</g>
<g>
</g>
<g>
</g>
</svg>
